# Blender v2.92.0 OBJ File: ''
# www.blender.org
mtllib light-square.mtl
o 光束_方
v -67.927200 88.829376 127.870811
v -17.651600 88.829376 127.870811
v -17.651600 205.859787 127.870827
v -67.927200 205.859787 127.870827
v -67.927200 205.859787 77.595230
v -17.651600 205.859787 77.595230
v -17.651600 88.829384 77.595215
v -67.927200 88.829384 77.595215
vt 0.246500 0.070300
vt 0.633300 0.070300
vt 0.633300 0.835900
vt 0.246500 0.835900
vt 0.633300 0.835900
vt 0.246500 0.835900
vt 0.246500 0.070300
vt 0.633300 0.070300
vt 0.246500 0.070300
vt 0.633300 0.070300
vt 0.633300 0.835900
vt 0.246500 0.835900
vt 0.246500 0.070300
vt 0.633300 0.070300
vt 0.633300 0.835900
vt 0.246500 0.835900
vn 0.0000 -0.0000 1.0000
vn 0.0000 0.0000 -1.0000
vn 1.0000 0.0000 0.0000
vn -1.0000 0.0000 0.0000
g 光束_方_光束_方_lambert4
usemtl lambert4
s 1
f 1/1/1 2/2/1 3/3/1 4/4/1
f 5/5/2 6/6/2 7/7/2 8/8/2
f 2/9/3 7/10/3 6/11/3 3/12/3
f 8/13/4 1/14/4 4/15/4 5/16/4
