{
    "asset" : {
        "generator" : "Khronos glTF Blender I/O v3.3.32",
        "version" : "2.0"
    },
    "scene" : 0,
    "scenes" : [
        {
            "name" : "Scene",
            "nodes" : [
                7
            ]
        }
    ],
    "nodes" : [
        {
            "mesh" : 0,
            "name" : "\u7acb\u65b9\u4f53",
            "scale" : [
                2.500000476837158,
                0.05000000819563866,
                3.102531909942627
            ],
            "translation" : [
                0.6750360727310181,
                0,
                -0.08978027105331421
            ]
        },
        {
            "mesh" : 1,
            "name" : "\u7acb\u65b9\u4f53.001",
            "rotation" : [
                0.7071068286895752,
                0,
                0,
                0.7071067094802856
            ],
            "scale" : [
                0.005000000819563866,
                1,
                1.500000238418579
            ],
            "translation" : [
                0,
                -0.12579049170017242,
                -1.6180737018585205
            ]
        },
        {
            "mesh" : 2,
            "name" : "\u7acb\u65b9\u4f53.002",
            "scale" : [
                0.04521317034959793,
                0.51500004529953,
                0.8499999642372131
            ],
            "translation" : [
                0,
                0,
                2.3922243118286133
            ]
        },
        {
            "mesh" : 3,
            "name" : "\u7acb\u65b9\u4f53.003",
            "rotation" : [
                0,
                -0.7071068286895752,
                -0.7071068286895752,
                3.090862321641907e-08
            ],
            "scale" : [
                0.04521318897604942,
                0.9236288666725159,
                0.473939448595047
            ],
            "translation" : [
                0,
                0,
                2.3922243118286133
            ]
        },
        {
            "mesh" : 4,
            "name" : "\u7acb\u65b9\u4f53.007",
            "rotation" : [
                0.7071068286895752,
                0,
                0,
                0.7071067094802856
            ],
            "scale" : [
                0.10116356611251831,
                0.51500004529953,
                0.008747221902012825
            ],
            "translation" : [
                0,
                0,
                2.3922252655029297
            ]
        },
        {
            "mesh" : 5,
            "name" : "\u7acb\u65b9\u4f53.008",
            "rotation" : [
                0.5,
                -0.5,
                -0.5,
                0.5
            ],
            "scale" : [
                0.37011608481407166,
                0.51500004529953,
                0.03838005289435387
            ],
            "translation" : [
                0,
                0,
                2.3922247886657715
            ]
        },
        {
            "mesh" : 6,
            "name" : "\u7acb\u65b9\u4f53.011",
            "rotation" : [
                0.5,
                0.5,
                -0.5,
                0.5
            ],
            "scale" : [
                0.02500000409781933,
                0.1721726953983307,
                0.030818050727248192
            ],
            "translation" : [
                0.23589615523815155,
                1.1988170146942139,
                -1.6384243965148926
            ]
        },
        {
            "children" : [
                0,
                1,
                2,
                3,
                4,
                5,
                6
            ],
            "name" : "moying",
            "scale" : [
                13.373820304870605,
                13.373820304870605,
                13.373820304870605
            ],
            "translation" : [
                0,
                0,
                9.01599407196045
            ]
        }
    ],
    "materials" : [
        {
            "doubleSided" : true,
            "name" : "\u6750\u8d28.005",
            "pbrMetallicRoughness" : {
                "baseColorFactor" : [
                    0.7324761748313904,
                    0.6400335431098938,
                    0.4762079119682312,
                    1
                ],
                "metallicFactor" : 0,
                "roughnessFactor" : 0.6000000238418579
            }
        },
        {
            "doubleSided" : true,
            "name" : "\u6750\u8d28",
            "pbrMetallicRoughness" : {
                "baseColorFactor" : [
                    0.4262118935585022,
                    0.39728203415870667,
                    0.4257376194000244,
                    1
                ],
                "metallicFactor" : 0,
                "roughnessFactor" : 0.10000000149011612
            }
        },
        {
            "doubleSided" : true,
            "name" : "\u6750\u8d28.002",
            "pbrMetallicRoughness" : {
                "baseColorFactor" : [
                    0.800000011920929,
                    0.800000011920929,
                    0.800000011920929,
                    1
                ],
                "metallicFactor" : 0,
                "roughnessFactor" : 0.5
            }
        },
        {
            "doubleSided" : true,
            "name" : "\u6750\u8d28.003",
            "pbrMetallicRoughness" : {
                "baseColorTexture" : {
                    "index" : 0
                },
                "metallicFactor" : 0,
                "roughnessFactor" : 0.5
            }
        },
        {
            "doubleSided" : true,
            "name" : "\u6750\u8d28.001",
            "pbrMetallicRoughness" : {
                "baseColorFactor" : [
                    0.23301491141319275,
                    0.23301491141319275,
                    0.23301491141319275,
                    1
                ],
                "metallicFactor" : 0,
                "roughnessFactor" : 0.5
            }
        },
        {
            "doubleSided" : true,
            "emissiveFactor" : [
                0.023649360984563828,
                0.023649360984563828,
                0.023649360984563828
            ],
            "name" : "Material_7.007",
            "pbrMetallicRoughness" : {
                "baseColorTexture" : {
                    "index" : 1
                },
                "metallicFactor" : 0.10000000149011612,
                "roughnessFactor" : 0
            }
        },
        {
            "doubleSided" : true,
            "name" : "Material_9.010",
            "pbrMetallicRoughness" : {
                "baseColorFactor" : [
                    0.0652940571308136,
                    0.06503201276063919,
                    0.06517543643712997,
                    1
                ]
            }
        },
        {
            "doubleSided" : true,
            "name" : "Material_11.004",
            "pbrMetallicRoughness" : {
                "baseColorFactor" : [
                    0.9117479920387268,
                    0.9217864871025085,
                    0.9258362650871277,
                    1
                ],
                "roughnessFactor" : 0.20000000298023224
            }
        }
    ],
    "meshes" : [
        {
            "name" : "\u7acb\u65b9\u4f53.024",
            "primitives" : [
                {
                    "attributes" : {
                        "POSITION" : 0,
                        "NORMAL" : 1,
                        "TEXCOORD_0" : 2
                    },
                    "indices" : 3,
                    "material" : 0
                },
                {
                    "attributes" : {
                        "POSITION" : 4,
                        "NORMAL" : 5,
                        "TEXCOORD_0" : 6
                    },
                    "indices" : 7,
                    "material" : 1
                }
            ]
        },
        {
            "name" : "\u7acb\u65b9\u4f53.001",
            "primitives" : [
                {
                    "attributes" : {
                        "POSITION" : 8,
                        "NORMAL" : 9,
                        "TEXCOORD_0" : 10
                    },
                    "indices" : 11,
                    "material" : 2
                },
                {
                    "attributes" : {
                        "POSITION" : 12,
                        "NORMAL" : 13,
                        "TEXCOORD_0" : 14
                    },
                    "indices" : 15,
                    "material" : 3
                }
            ]
        },
        {
            "name" : "\u7acb\u65b9\u4f53.016",
            "primitives" : [
                {
                    "attributes" : {
                        "POSITION" : 16,
                        "NORMAL" : 17,
                        "TEXCOORD_0" : 18
                    },
                    "indices" : 19,
                    "material" : 4
                }
            ]
        },
        {
            "name" : "\u7acb\u65b9\u4f53.025",
            "primitives" : [
                {
                    "attributes" : {
                        "POSITION" : 20,
                        "NORMAL" : 21,
                        "TEXCOORD_0" : 22
                    },
                    "indices" : 15,
                    "material" : 5
                }
            ]
        },
        {
            "name" : "\u7acb\u65b9\u4f53.021",
            "primitives" : [
                {
                    "attributes" : {
                        "POSITION" : 23,
                        "NORMAL" : 24,
                        "TEXCOORD_0" : 25
                    },
                    "indices" : 26,
                    "material" : 6
                }
            ]
        },
        {
            "name" : "\u7acb\u65b9\u4f53.022",
            "primitives" : [
                {
                    "attributes" : {
                        "POSITION" : 27,
                        "NORMAL" : 28,
                        "TEXCOORD_0" : 29
                    },
                    "indices" : 30,
                    "material" : 4
                }
            ]
        },
        {
            "name" : "\u7acb\u65b9\u4f53.011",
            "primitives" : [
                {
                    "attributes" : {
                        "POSITION" : 31,
                        "NORMAL" : 32,
                        "TEXCOORD_0" : 33
                    },
                    "indices" : 34,
                    "material" : 7
                }
            ]
        }
    ],
    "textures" : [
        {
            "sampler" : 0,
            "source" : 0
        },
        {
            "sampler" : 0,
            "source" : 1
        }
    ],
    "images" : [
        {
            "bufferView" : 16,
            "mimeType" : "image/jpeg",
            "name" : "\u58a8\u5f71\u79d1\u6280-\u5c55\u793a\u80cc\u677f-\u8f6c\u66f220230314-RGB"
        },
        {
            "bufferView" : 24,
            "mimeType" : "image/png",
            "name" : "Image_1"
        }
    ],
    "accessors" : [
        {
            "bufferView" : 0,
            "componentType" : 5126,
            "count" : 64,
            "max" : [
                0.37822389602661133,
                79.00065612792969,
                0.8098556995391846
            ],
            "min" : [
                -1.6241567134857178,
                -1.9993460178375244,
                -1.1925249099731445
            ],
            "type" : "VEC3"
        },
        {
            "bufferView" : 1,
            "componentType" : 5126,
            "count" : 64,
            "type" : "VEC3"
        },
        {
            "bufferView" : 2,
            "componentType" : 5126,
            "count" : 64,
            "type" : "VEC2"
        },
        {
            "bufferView" : 3,
            "componentType" : 5123,
            "count" : 108,
            "type" : "SCALAR"
        },
        {
            "bufferView" : 4,
            "componentType" : 5126,
            "count" : 18,
            "max" : [
                0.34852373600006104,
                0.0030345916748046875,
                0.8098556995391846
            ],
            "min" : [
                -1.6241567134857178,
                -1.9993460178375244,
                -1.1925249099731445
            ],
            "type" : "VEC3"
        },
        {
            "bufferView" : 5,
            "componentType" : 5126,
            "count" : 18,
            "type" : "VEC3"
        },
        {
            "bufferView" : 6,
            "componentType" : 5126,
            "count" : 18,
            "type" : "VEC2"
        },
        {
            "bufferView" : 7,
            "componentType" : 5123,
            "count" : 24,
            "type" : "SCALAR"
        },
        {
            "bufferView" : 8,
            "componentType" : 5126,
            "count" : 20,
            "max" : [
                1,
                0.9999998807907104,
                -0.08092379570007324
            ],
            "min" : [
                -1,
                -1.0000001192092896,
                -2.0809237957000732
            ],
            "type" : "VEC3"
        },
        {
            "bufferView" : 9,
            "componentType" : 5126,
            "count" : 20,
            "type" : "VEC3"
        },
        {
            "bufferView" : 10,
            "componentType" : 5126,
            "count" : 20,
            "type" : "VEC2"
        },
        {
            "bufferView" : 11,
            "componentType" : 5123,
            "count" : 30,
            "type" : "SCALAR"
        },
        {
            "bufferView" : 12,
            "componentType" : 5126,
            "count" : 4,
            "max" : [
                -1,
                0.9999998807907104,
                -0.08092379570007324
            ],
            "min" : [
                -1,
                -1.0000001192092896,
                -2.0809237957000732
            ],
            "type" : "VEC3"
        },
        {
            "bufferView" : 13,
            "componentType" : 5126,
            "count" : 4,
            "type" : "VEC3"
        },
        {
            "bufferView" : 14,
            "componentType" : 5126,
            "count" : 4,
            "type" : "VEC2"
        },
        {
            "bufferView" : 15,
            "componentType" : 5123,
            "count" : 6,
            "type" : "SCALAR"
        },
        {
            "bufferView" : 17,
            "componentType" : 5126,
            "count" : 118,
            "max" : [
                2.1959068775177,
                3.498053550720215,
                -1.2983145713806152
            ],
            "min" : [
                0.195906400680542,
                1.498052954673767,
                -3.2983150482177734
            ],
            "type" : "VEC3"
        },
        {
            "bufferView" : 18,
            "componentType" : 5126,
            "count" : 118,
            "type" : "VEC3"
        },
        {
            "bufferView" : 19,
            "componentType" : 5126,
            "count" : 118,
            "type" : "VEC2"
        },
        {
            "bufferView" : 20,
            "componentType" : 5123,
            "count" : 150,
            "type" : "SCALAR"
        },
        {
            "bufferView" : 21,
            "componentType" : 5126,
            "count" : 4,
            "max" : [
                -0.3206128478050232,
                -1.2218749523162842,
                3.7465944290161133
            ],
            "min" : [
                -0.3206128478050232,
                -3.008307456970215,
                1.805417537689209
            ],
            "type" : "VEC3"
        },
        {
            "bufferView" : 22,
            "componentType" : 5126,
            "count" : 4,
            "type" : "VEC3"
        },
        {
            "bufferView" : 23,
            "componentType" : 5126,
            "count" : 4,
            "type" : "VEC2"
        },
        {
            "bufferView" : 25,
            "componentType" : 5126,
            "count" : 152,
            "max" : [
                4.544666290283203,
                -2.752263307571411,
                1.7829437255859375
            ],
            "min" : [
                -2.8792378902435303,
                -4.827267646789551,
                -92.64704895019531
            ],
            "type" : "VEC3"
        },
        {
            "bufferView" : 26,
            "componentType" : 5126,
            "count" : 152,
            "type" : "VEC3"
        },
        {
            "bufferView" : 27,
            "componentType" : 5126,
            "count" : 152,
            "type" : "VEC2"
        },
        {
            "bufferView" : 28,
            "componentType" : 5123,
            "count" : 180,
            "type" : "SCALAR"
        },
        {
            "bufferView" : 29,
            "componentType" : 5126,
            "count" : 24,
            "max" : [
                -2.0894153118133545,
                -2.812166929244995,
                -2.3079965114593506
            ],
            "min" : [
                -4.089415550231934,
                -4.812167167663574,
                -4.30799674987793
            ],
            "type" : "VEC3"
        },
        {
            "bufferView" : 30,
            "componentType" : 5126,
            "count" : 24,
            "type" : "VEC3"
        },
        {
            "bufferView" : 31,
            "componentType" : 5126,
            "count" : 24,
            "type" : "VEC2"
        },
        {
            "bufferView" : 32,
            "componentType" : 5123,
            "count" : 36,
            "type" : "SCALAR"
        },
        {
            "bufferView" : 33,
            "componentType" : 5126,
            "count" : 320,
            "max" : [
                32.34181594848633,
                1.1028423309326172,
                38.720333099365234
            ],
            "min" : [
                -33.96870803833008,
                -1.1030418872833252,
                -45.71657943725586
            ],
            "type" : "VEC3"
        },
        {
            "bufferView" : 34,
            "componentType" : 5126,
            "count" : 320,
            "type" : "VEC3"
        },
        {
            "bufferView" : 35,
            "componentType" : 5126,
            "count" : 320,
            "type" : "VEC2"
        },
        {
            "bufferView" : 36,
            "componentType" : 5123,
            "count" : 468,
            "type" : "SCALAR"
        }
    ],
    "bufferViews" : [
        {
            "buffer" : 0,
            "byteLength" : 768,
            "byteOffset" : 0,
            "target" : 34962
        },
        {
            "buffer" : 0,
            "byteLength" : 768,
            "byteOffset" : 768,
            "target" : 34962
        },
        {
            "buffer" : 0,
            "byteLength" : 512,
            "byteOffset" : 1536,
            "target" : 34962
        },
        {
            "buffer" : 0,
            "byteLength" : 216,
            "byteOffset" : 2048,
            "target" : 34963
        },
        {
            "buffer" : 0,
            "byteLength" : 216,
            "byteOffset" : 2264,
            "target" : 34962
        },
        {
            "buffer" : 0,
            "byteLength" : 216,
            "byteOffset" : 2480,
            "target" : 34962
        },
        {
            "buffer" : 0,
            "byteLength" : 144,
            "byteOffset" : 2696,
            "target" : 34962
        },
        {
            "buffer" : 0,
            "byteLength" : 48,
            "byteOffset" : 2840,
            "target" : 34963
        },
        {
            "buffer" : 0,
            "byteLength" : 240,
            "byteOffset" : 2888,
            "target" : 34962
        },
        {
            "buffer" : 0,
            "byteLength" : 240,
            "byteOffset" : 3128,
            "target" : 34962
        },
        {
            "buffer" : 0,
            "byteLength" : 160,
            "byteOffset" : 3368,
            "target" : 34962
        },
        {
            "buffer" : 0,
            "byteLength" : 60,
            "byteOffset" : 3528,
            "target" : 34963
        },
        {
            "buffer" : 0,
            "byteLength" : 48,
            "byteOffset" : 3588,
            "target" : 34962
        },
        {
            "buffer" : 0,
            "byteLength" : 48,
            "byteOffset" : 3636,
            "target" : 34962
        },
        {
            "buffer" : 0,
            "byteLength" : 32,
            "byteOffset" : 3684,
            "target" : 34962
        },
        {
            "buffer" : 0,
            "byteLength" : 12,
            "byteOffset" : 3716,
            "target" : 34963
        },
        {
            "buffer" : 0,
            "byteLength" : 512219,
            "byteOffset" : 3728
        },
        {
            "buffer" : 0,
            "byteLength" : 1416,
            "byteOffset" : 515948,
            "target" : 34962
        },
        {
            "buffer" : 0,
            "byteLength" : 1416,
            "byteOffset" : 517364,
            "target" : 34962
        },
        {
            "buffer" : 0,
            "byteLength" : 944,
            "byteOffset" : 518780,
            "target" : 34962
        },
        {
            "buffer" : 0,
            "byteLength" : 300,
            "byteOffset" : 519724,
            "target" : 34963
        },
        {
            "buffer" : 0,
            "byteLength" : 48,
            "byteOffset" : 520024,
            "target" : 34962
        },
        {
            "buffer" : 0,
            "byteLength" : 48,
            "byteOffset" : 520072,
            "target" : 34962
        },
        {
            "buffer" : 0,
            "byteLength" : 32,
            "byteOffset" : 520120,
            "target" : 34962
        },
        {
            "buffer" : 0,
            "byteLength" : 76415,
            "byteOffset" : 520152
        },
        {
            "buffer" : 0,
            "byteLength" : 1824,
            "byteOffset" : 596568,
            "target" : 34962
        },
        {
            "buffer" : 0,
            "byteLength" : 1824,
            "byteOffset" : 598392,
            "target" : 34962
        },
        {
            "buffer" : 0,
            "byteLength" : 1216,
            "byteOffset" : 600216,
            "target" : 34962
        },
        {
            "buffer" : 0,
            "byteLength" : 360,
            "byteOffset" : 601432,
            "target" : 34963
        },
        {
            "buffer" : 0,
            "byteLength" : 288,
            "byteOffset" : 601792,
            "target" : 34962
        },
        {
            "buffer" : 0,
            "byteLength" : 288,
            "byteOffset" : 602080,
            "target" : 34962
        },
        {
            "buffer" : 0,
            "byteLength" : 192,
            "byteOffset" : 602368,
            "target" : 34962
        },
        {
            "buffer" : 0,
            "byteLength" : 72,
            "byteOffset" : 602560,
            "target" : 34963
        },
        {
            "buffer" : 0,
            "byteLength" : 3840,
            "byteOffset" : 602632,
            "target" : 34962
        },
        {
            "buffer" : 0,
            "byteLength" : 3840,
            "byteOffset" : 606472,
            "target" : 34962
        },
        {
            "buffer" : 0,
            "byteLength" : 2560,
            "byteOffset" : 610312,
            "target" : 34962
        },
        {
            "buffer" : 0,
            "byteLength" : 936,
            "byteOffset" : 612872,
            "target" : 34963
        }
    ],
    "samplers" : [
        {
            "magFilter" : 9729,
            "minFilter" : 9987
        }
    ],
    "buffers" : [
        {
            "byteLength" : 613808,
            "uri" : "data:application/octet-stream;base64,"
        }
    ]
}
